Coordinates
version=1
nRows=6
nColumns=36
inDegrees=yes

Units are S.I. units (second, meters, Newtons, ...)
If the header above contains a line with 'inDegrees', this indicates whether rotational values are in degrees (yes) or radians (no).

endheader
time	pelvis_tilt	pelvis_list	pelvis_rotation	pelvis_tx	pelvis_ty	pelvis_tz	hip_flexion_r	hip_adduction_r	hip_rotation_r	knee_angle_r	knee_angle_r_beta	ankle_angle_r	subtalar_angle_r	mtp_angle_r	hip_flexion_l	hip_adduction_l	hip_rotation_l	knee_angle_l	knee_angle_l_beta	ankle_angle_l	subtalar_angle_l	mtp_angle_l	lumbar_extension	lumbar_bending	lumbar_rotation	arm_flex_r	arm_add_r	arm_rot_r	elbow_flex_r	pro_sup_r	arm_flex_l	arm_add_l	arm_rot_l	elbow_flex_l	pro_sup_l
      3.93333330	      4.80920361	      0.33315602	      3.81815809	      0.69245806	      0.91467131	     -0.32255860	     28.07603622	     -1.20254352	      5.02177582	      0.63104026	      0.01101373	     -1.70510079	    -19.77436494	     -7.49999987	     10.71670462	      5.96644872	     -9.11695861	     42.28076645	      0.73793858	     28.52563715	    -15.70481728	     -7.49999987	    -12.52565479	     -8.58120827	     12.15195586	     53.79205674	      8.82068023	     71.63501947	    120.14511548	     98.19431712	     41.85501796	     11.67344687	     73.20962925	    118.34867965	     76.61779806
      3.95000000	      4.47917325	      0.27651138	      3.86778667	      0.69264404	      0.91800996	     -0.32259741	     28.10162263	     -1.17424989	      4.76919185	      0.54361047	      0.00948779	     -0.96505608	    -19.06679202	     -7.49999987	      9.77848297	      6.08247307	     -9.18626021	     39.79224969	      0.69450577	     28.01082368	    -15.00439756	     -7.49999987	    -12.13732242	     -8.25912869	     11.59857784	     53.83947025	      9.07427846	     71.78997690	    119.79619868	     97.69103343	     41.75131563	     11.58478768	     72.84096933	    118.53606141	     76.20278690
      3.96666670	      4.02171984	      0.19977107	      3.84329235	      0.69247793	      0.91986849	     -0.32264524	     28.12184034	     -1.19743067	      4.27457100	      0.47938205	      0.00836680	     -0.91711226	    -19.17797080	     -7.49999987	      9.13620991	      6.01702730	     -9.57952018	     37.34803058	      0.65184610	     27.47206890	    -14.03741064	     -7.49999987	    -11.65082898	     -7.96233334	     11.41620409	     54.01030903	      9.22454887	     71.51523149	    119.79923909	     97.69578587	     41.80750621	     11.86652790	     72.51895494	    118.80795398	     76.17476928
      3.98333330	      3.67072035	      0.27879891	      3.99429209	      0.69231291	      0.92735432	     -0.32293589	     28.00476697	     -1.44104779	      3.73976513	      0.40249699	      0.00702490	     -0.45356596	    -18.67036181	     -7.49999987	      8.14614230	      6.23573371	     -9.59108626	     34.53568467	      0.60276141	     27.04617080	    -13.08621942	     -7.49999987	    -11.19917261	     -7.78924598	     11.29720640	     54.22298070	      9.40908692	     71.09065132	    119.67243178	     95.28267138	     41.64238081	     11.82480877	     72.52463450	    119.24995161	     75.24016673
      4.00000000	      3.16452433	      0.23226065	      4.27983639	      0.68822640	      0.93557591	     -0.32563826	     28.04470077	     -1.61002143	      3.33740806	      0.36919844	      0.00644373	     -0.47844982	    -18.61199690	     -7.49999987	      7.81893772	      6.36068523	     -9.61132088	     32.38137629	      0.56516163	     26.10184099	    -12.32239795	     -7.49999987	    -10.88919319	     -7.43360627	     10.69168248	     54.15105745	      9.48779301	     71.15528887	    119.55417996	     95.39339545	     41.59627742	     11.69563975	     72.53906945	    119.04701924	     75.23158885
      4.01666670	      2.97379692	      0.00046718	      4.28824636	      0.68870696	      0.93551486	     -0.32567069	     27.82125375	     -1.45848474	      2.75573156	      0.36542745	      0.00637791	     -0.34452210	    -18.59045510	     -7.49999987	      7.29211590	      6.20973423	     -9.73805584	     30.67956181	      0.53545937	     24.76796598	    -12.20635802	     -7.49999987	    -11.04176546	     -6.76190314	      9.81102811	     54.71247886	     10.13950608	     71.56119533	    119.19249437	     94.37535187	     41.75281340	     11.67507901	     71.92351947	    119.23853623	     74.71064964
